<mxfile host="Electron" modified="2024-02-15T08:25:14.619Z" agent="Mozilla/5.0 (Windows NT 10.0; Win64; x64) AppleWebKit/537.36 (KHTML, like Gecko) draw.io/21.2.8 Chrome/112.0.5615.165 Electron/24.2.0 Safari/537.36" etag="Y1p2_P3-4z15CbB0J9hS" version="21.2.8" type="device">
  <diagram name="Page-1" id="2XWkQP5S-hDbL94sL5Vg">
    <mxGraphModel dx="2058" dy="1180" grid="1" gridSize="10" guides="1" tooltips="1" connect="1" arrows="1" fold="1" page="1" pageScale="1" pageWidth="3300" pageHeight="4681" background="#999999" math="0" shadow="0">
      <root>
        <mxCell id="0" />
        <mxCell id="1" parent="0" />
        <mxCell id="APLwThIm-aDqV8bCMrbt-1" value="Dial" style="rounded=0;whiteSpace=wrap;html=1;fontSize=25;fillColor=#dae8fc;strokeColor=#6c8ebf;" parent="1" vertex="1">
          <mxGeometry x="1298" y="140" width="650" height="60" as="geometry" />
        </mxCell>
        <mxCell id="J-oIEgopZt6ZHxVBgXz0-1" value="" style="shape=image;verticalLabelPosition=bottom;labelBackgroundColor=default;verticalAlign=top;aspect=fixed;imageAspect=0;image=data:image/png,iVBORw0KGgoAAAANSUhEUgAAAYgAAAFSCAYAAADo5khvAAAAAXNSR0IArs4c6QAAAARnQU1BAACxjwv8YQUAAAAJcEhZcwAADsMAAA7DAcdvqGQAAD+TSURBVHhe7d0HYBRV/gfw7256AiRAaNJT6CAd6b1bsHdFz4b9b0XPenbx1LNhOU/PQz1OBRURBQQBO6goRWkhtBBIKOnZ+v7zZmeTzWY22zeb8P3AZHfevp158/bN++3bmZ019O7TV8CdEKiZqMy756qVJ9KCXLsPT6/f7Ys2EaqNxlLpBu22UWhUG1OnkGyp14XUX32qazbUXL9jtjrNNU/NAKHT6Qv3yOA1MPiwh/uQxZsQLCIEomNDoqMuiDyr2SUFKHoWEnZeS+nTZnjOpD7iQ6CoDhBuHX/dgUG7p9y45YogL2sO7uEoE4LSRsEGN6w6bxxqdgFhEpKVRKSkIeG1pMFnCAt1rdV/VI7ZmuVxDRSOAOHW+deODc4E7Va5ccviwvMjVbxk8WEJIdBQyhktIrS1J1Kl1twvo1jDKGhISunTQsJfH17XEFARHE9S/1b/URk8BAlDr959XHZJt+DgPmpw/Ne4z4eSD0v1kiU85XIXfDl9EZltCYWGU1JyVbNziFZeS+nTZtT/trr1xR6Ep5w1Rgc1/2h3HfcledclQNQMDu6jhupZ16Ah1ZzzpY/wIYt3roXVEZJ1hISXkkRJQaOnvqgxqu52guB1ISFZS9BCU8y6MwW2iOoE9Z4WDFyDhlTjMUeAcAkONQKA+pA2XzOA1J530k2syUsWH5bgg+BXEppyRIsIbE3jWEXEVO+S9SzogkTNlgTNpy3xmin4+gjNKmpnUlPcRgkyVbtx/qnKZ+jZq3f1PucWHFyDRmxcHFJSkhEfF4/4hHjExMQEvLe6riWqRaSYwa+kgdQmncAc3U6wQrOUOkVgFaGgden+U55ms9lgMplgNltQXl4Oq8WipDuW5wwYzr/VAaKO4NC0aVOkpqXiyLFSVJgsqFQWbLHYtAzkH1nt3rp0xwtERBRqcbExSEyIQ5IypbdoguPHi1BSXKx0O1pgUG+0+2qA8BAc5HGI9PR0JSUGBwuOw2yxOh6gALl2/HUFCQYIIgq/+LhYtGuVitgYgcOHC7TU6iBh1A8O8lagmTJykMFhT14hg0PQ3Dt9Oe9pImqs2L6jiezX9+QdgdVmUD8pcpycVB0HjPJGJQNFVXCQw5BY9WMlOXKgYHGnoMbI3zc0zrzcH6LNwYIipKWmqv2+axwwqvfljHqrxglVSpMU9ZgDRw7eOHcS98nJ9T5RtKmv9sn9IprIfr5Q6e+TU5LVeWcccIwg1BkZMbRU5VaerSQPSFNd6mrk8jHuBBTNnO3TUztlGz6RyP5e9vvO6CDjQfUxCC02OOflqazybCXyhDsONSbu7dl13lNblz2Fs+PwhTO/v8+jSKhUAkRCQoLjldGChKF7j57qh02OWfWuetulcxds2XlATfWkWdNk9ZQpf1msNhSXlGtzDRUDBNU3Zxv01NnW9bhe+3XN5+1xPd7KQ9Gud9ZJyN2Tq9wzqGcyKQGih8snS4478rZLl87YujNPnffkuXmPIzMrU5vT57wI1IH8QmdQQlnxEdx2570wGv0PLtFBb+chihRfO2/3fM48ntqvt8clvfU4+VouT+Tz/c3v5M/zyJNeWe2Qm7vH9TRXNV2pX8edqmjhg7TUpujdI7vOqVf3LHWaPPYUTBnnmFqlt/RrPdGlrp2HKNx8bX96+WRasO3X0/P9TXdylsmZz/V+6Dzy4D3Yu2MjDuRs0p3kYzJPtPlu1RKMGDZEm6tNPvbtV59qc6Hi/CRJeSW6d1dGEPKe8lfeOjtuX0YQ77z5Mjp0yMTH63bAYBSOKUZOdsw4OQtt26SitLRMzZuSkoKPvt2t3u/atByXzL4GMTGx6ry7zT9/g+bN07Q54Nix4+gzaJQ2B3yzaqmadtrZF2sptS356F38tmkL7nvocS3FV87G6SmAhb7xEvmurvbnbLPBtFG5DF+e77p/eMsfyL7k6TmBkQFg8oxzcPDQIS2lphbNm2Ptyk/RKbu/lhIdZAB46fkncOOt9+C7H9drqQ51PRYoxwjC+RGTHEEEQV4PxGCIwe6iUuSWlGBPeTH2mYqw33IcFotdCTbKpP1zion37RIdZ51/Odpn9FGn9T//qkT5zRg2ZJD62KgJM+sMDoFzbbDB7GREgaqr3UWiTfq6jmDL4u35gSxfPkf/efLacTI4FBeX6E65e/Y6ri8XZWTHLwOADASuI4lwBAc9QQUIm92u3rZqmQBDvBVF1mIUVB7BoQrHV7YNbm8CEptXIjnd/4PTV1xzE5avXI375t6mpRA1BMF2oq58WZbnDtJ/cud1Tp4Eur5QldETZ7nCvZ7IcA8SkQoOktsX5bTGID9mqqtdaJxZ/ji0H7uPH8Rx6zFUoARmQ6maLrTXx3nlwZS0UiQ3cTzmr2+++6HqYyf58dGjD92r3n/r9RfV0YVzco4y/KfXmJyNzHUi8oc/bSaa2lcoyxKqZdW1HE+PRVOdBs41SIQ1OMhOXe3YZQxwvdRGAJxVX6EEhLgkC+ISLYhNMCNOmVTKOpzBQerRqiOy0jK0Of9s3vKn+lVwd3J04fwo6q133gtwlNE4GhFFm6q9rYGS+0XtfeNAzu8+TTU5l+XPvub6HOfz/Hm+k6fnuC6X9AQVIJzUwKBMcQlycgkQSt277h5ZzTPVKRB9evfA8aIiba4m5+jhissu0lL8wQZC9cXZQTmnhqF9Rj+fpujmWt/RX/euHyu5ftwUbiEJEI7g4AgM8fI23hEgHGdEOUOEgNliQUVFpTbvn1mnzcCOnTnaXDUZGJwHtOUIom6uO6NzIqoPbHuBc687X+vSuc/r5XemhWJZoeV+zMH9mEQ4BRcglLoxmSowLD0Tg5tnY2Czbuif0hP9knqr6Y4sjgqUscJut1cd2PaHPObQtUtn9eMkPT+u/1m9HTdmpHqrL/wvJJ3ofG1j/rZFtt1gyV9Rk6eyetK2bWs1j0Nd9S0fc388fK+PpwPSkQoSQQUI2df37N4R146fhGvHTsHVo6fjqtGn4y8jz0CP7h2QnJyC1q1boUXLFsqoIk4NEEajb5W5aOG/qz46kly/B1HNgF9+lZ93OvIdO6b/EVQ4X0AiB2cb89bWfGmLMo/rRLX5Vz//XrAQa1d+ovQTtY+VyOmndV+qeaq5Lt918sTb4/6T30OY9/j9tYKDkzNIPPPEA1pK6Bm6de+hvLcX6jv8qlvlT5cuXbB1V91flLv1puswoL/nzxqNRqM6ycjs+s3p33/bjHnPvQCjhy/K+Sa0LwZR4PTaYnV7r8Y2e+Jwf/09vfZ67aSaDBKRvOpEr0zti3JKcdXvuakBQimA+k+WQ70PdPUhQKhfhFNGBf4WX1aVQQkcBkOgAxjuaBQt/Nnx2W5PPLIdeHvd/e1Bw0cGiN1KgFBLHPQ3qZUOXo4C5CUz/JnkcwIPDkTRoq4d3/0xBocTU8N+3aO8l5aVqzcR1ZdA2iHbbOMk3/kH++4/ekYPeqI4QHCnomjjb5v0N5BQw+AeGJzzvnT2rnl9yV+/oiBA6O1Avu5U0V/B1Fiwoz8xuHfgelNd9PLppTUM9RwgnDtdoDsfd1qKBLYzOjFF0UdMwQYLolCS7dA50YnD9XX3Nrnz9LheWsOgBAjHaa3OP45BUH0NhxpeBVJjxHZIvnDt+H1tM+7PcU7RQY0A2lcd5FwERhCeNj56KoXIIbp2VjqRRGfbC3OAcG6w+4ZzJ6RowzZJ5M7QrXt37aKrclih/FPHFkL9JvWKFSvkDBERnQAmTZ6M3N3yUhsG+T+aDlITEVE0YYAgIiJdDBBERKTL6DifSTutyXFuk3ocQrtLREQnEGffL+MARxBERKSLAYKIiHSFLkDYbbBarbD7+9mUsMOmPM+m+0ShLNYa2HIDkP/p7Zg5+TK8vNHxe9oNnx25/7sZp824Gm9ts2pp9UOt2ymX4sVf67duG99rHF6sr8iLln1FClGAKMY3f5uOfr2H4KJ/boNFS/WFZdt8nNN/EC76107U7MLsOLT8Xkzt1x9T7/gEe/xZaIAMtmIc3JOPYnsj+tJUeQFycwtRWc+bpNZtbj5K7FpCPWmUr3EYsb4iL1r2FSk0AeLoD1i0Ig9N0gQ2L/kcW/0KfHKUYIHVps1qyn6bj5vv/hBH+s7Bs4+dja7x2gMUHpY9WPbUtbj4zo+RF4HRml/8LVs0bwtRAxKCACGQv3YR1h3pjDHT+iBh2+f45LdS7bHAWPd/gr/e/CK2trsEz740ByenaA9Q+Ihi/LF2DbYWmrWEKOJv2aJ5W4gaEKN8g1V9qY2qGfW/T2z7sPqT9ajoPgUXXzYLg5rmYuXiDTiuPey3op/wj5sfwBf2yXjolXswLt0thgl5rMOmHZMQsJQcxt6c3cg7bqqzyPbKY8pQeRd25ebhWGXdYzfHtUeUTas4irzcHOw9VAKLr/Uhj8XY7LplETb9Yy22yiIc3peD3QcKUGLWfSZMRQeRuysH+49UwG2w5cKOymN5yM3JxcGiuuujBllmi1XJLz9GsMNmcxxPsukswJ969F0d2+dH2VQ+5ne+xpbSAuzbvRsHjlYquT3xtf5d1Ec7qLFv2GE6XogjpRbdMrgT5hJl3buRsycPR8pqH6/yr76UtfvZTvzJH7r9pTZhKUXB/hzs2nMYxSbv5ZavpafXufr4qjav8XcdqgDak/KI//WgLkb5o73eQY8gLLu+wOINJnSbOgW9M8fhzBEtkbfmI3xXoGXwlSyPOQcL774Vr+f2xE0vPYGzu9T+XOnQJzdixMkz8fiqn/HB3NMwfPg4TJ02BWOGDMaU2z5EjknLqLEV/oTXb5qOIQOGYdzUmZg5dRyGDRiKU29bgM0lepWqFMW0HysePx8jBg7DmElTMH7EIAyedive+6Ncy+FJGb5/dBoGjLsTy49qSU4VG/DUzIEYc8sSHNaSUL4NC+eeiVFDhmP81BmYNmEUhgw7Fy9tqt4I66F1eP6K8RgydBymzZyBicMHYfiZ92NJbs13x6bcpXj4vBEYMGQ0Jk2ZhNGDB2PyzQuwpdRbAyzHj0/MQL8B5+PVbWYUr3sAk3r3Ru++U/HI92VansDq0Rd1b59vZavme35b6TZ8ePdMDB00AhMmT8KYoYMw7tq3sMVtsb7Wf0310w7kvjFS2Tee+HoDFtw4CYOHDse4y97An3Udvyvbho8eOA8jBw7BmCkzlNd1AkYMGokr3s2p0aH4Wl/+thO/8odwf3Enjv2Cf90+S9nnh2LM5Jk4ddoYDOk/Ahc8uRIHPNZfIVbcMxknD7sGHx5w3zaBvMVzMFxpew+uc7xdDmwdkp/tSRFoPbgLMkBU4o/PP8NmQx+cOjUb8UjHKWeMQtvC77BozYE632G4E5Z8fPX4jXhkXSoufPYlzDm5ifaIG6FEbIsZf/73CfzPfiFe/mQ5Vix9C3dPSMO+Tx7BvQt2VB3sFkfX4pFLrsDTq60Yc9fr+HDZKqz87F3Mu7wbDn/2EC6//i1scwso8p3XroUP4cWdQ/Dgf5djzZpleO+xs9Hh4Gd4+NoH8GWBl87QboXJLN/B1ma3mZTHnLVSgGX3XYUHllow8eH38OXXa7ByyQI8deVApDmffWwdHps9B6/+2R6XPvchvly9Eoteuho98j/APTc+ix9LHNlEwQo8eOUdWLC9Lc5/8n18rixrxQePY9LRf+OlJQe9nDQQh84z78Szz92HMzPjkTr4Sjz6/PN4/tk7Mb19rJojsHr0gdft8162mnzNb8W295/GIpyPl5euwuov3sG9k1vi8Mq/4763t6JqF/Kx/nXVQzuQ+4bFYsOej+fh/cppuO/F1/HYRT2Q6KnJlm/C/L9ciLs/PITe176Aj1Z8jdXLF+PNB6ajY41j0r7Vl7/txL/8IawnHbaC9Vi1tQXOuP+f+HjlGny9/D08PKMpNr1xN+5ftN9DX5aOoTOGosXxn7F0rVse+36sXbIeJV0mY9aQNDUpsHVofG5PimDarbvsbt1FVnY3kZWVLTLllJklMjIzxcSJk5RRpRelP4rHpvQQAy57V+TatLSiteKv47LFyRf/W+RYtbQ6mP94UZzeo6c4Y/ZFYnD2CHHd/3KESXtMT/6iq8SAjEwx+Mr/ij2uyy/4XNx8Sqboe8Fb2nrLxIYnp4nuPaaIh9YdE3Y1k1OF+P35M0SvzGHixqWHtTTnsjNEn7NeEpsrtESVTRxYdK0YktlHnPv6NmHWUmsrFd89OE5kD71ZLDuiJTmVrxePTeomBl2zWByS88Vrxb2js8SQOUtEdQlclYtf5s0UPXqfLp75uURLcyj48v/EyKzB4rpP8pU5Jd/T00WP7PHir2uOOTI4Ff8oHp/eU2T0nCVe2WbREj0w/S7+PqO76D97oThQo7L8r0c9at1mTxKPbSjXUnzdPoXHsnlQR37nazxw9nsi17VKCr4Qtw7PFH3Oe1PsVNuPH+WrpT7agXPbssWgi94QWyvVpDqYxZ+vnSv6Zo0QN368X3jaVX2vL3/biZ/5Q1hPemwFe8V+Z9N0OrpC3D4iSwy+7hPHa6Wn5Dvx0MRuov+lC0SuSyVadr0lLuzXS5z50taq/szXddTeV/xoT0HWg+z3Zf8v44CMB0GNIIo2LMaXOUnoP3MsOjmX1GwATpvQGRW/fozPt/s+nIlJ74QOSYfwwwefYYvXY9zNMfSsiegUo81KLXtjaFYTmArzcESutnIHVq/ZjfiTz8clp6S5Xe0/EX3OvQjDmh3BxrVbUKSlOqThlIvPRq9EbVZlxEnjz8WY1hXY9dNmHNFSg5LYGp1aJ+HY+g+weGNR7c8HK7fhq1W7kHDyGTitV7L6GbBzSu05DN2bFmH7r7tRZtqJr9fuRtzAizF7hOOdSpWmJ2PG+M7Qe6/ts4Dr0Qtft0/LHlotMOzsyejsWjEte2GI0n7MR5T2I9+1Rqp8oWoHWnagCfqdMQM9ErRZT8w7sXLZVtj7XIQ509vDdVeqzZf68rOd+Js/5PVUkzG9I9onaTPKSKyi6BD27K9ESlo8zMVFKPf09r5Jf5w+JQMVG5di9V5nqSzYtfwz/G4YiLNO7Q7nB+UBr8MfIW63QQSIQny/eA3ymmYh07IeHy9ejMXqtAL70rvjJOsfWLpkM3w941V0OReP3zcDTX57ETfd9QHq/KgsJg3t27qd2mRIQYvmCUq9m2GRFV26D7sLrEjtmoXWOj2koVlHdEw1oDT/EEpdx23GVHTs0MytwSpS2qJTejxMx4+gtFbrDEBcd1z01+swPPYHPHXuSIy74B68tW4vyp1lKd2vlN+Msl+ex3mnDMSAAQOqpiGnPY7vS+2oKC6FWdnOXYfMSG7THi1qbWcc0lqlVTXQgARaj974un1a9pCKSdVpP0lIbRbvOOAntyNS5QtVO9Cyw9AE7U7Sab/uSnLxZ14l0rr3QQdvDcSn+vKznfibP9T15E6UYfunT+PGcydh+ODBGDZiHKaeeycW7qiEsNfVcyehz+mno5dtM75Ytdvx8bZpO5Z/sQ1NR52PyVXvnBUBr8MPIW63Oi+Nb8TBNVj0zWHYiw7jrQd/0VKryYgVt/xT/DpnIEY01RLrYIhtiuxzH8eLB/Nw+T8exLWPtcJ7D41DS68t3QNhU88esMtvYWtJNSjLNcply1/FcGWIQWyMzkrNxThWakVM00TEBVomN00HXI9/f3Uqvnn/Fbz41qd4bPYivDb8Zrwy/wYMVMtvQLux1+HGKW11XyhDWkfEWrfAZDUgLilJJ49Qz+Jx7kMBCbQevfF1+7T7oeX4MZQ6RbB8IWkHyq260xsTkJJU93hAZTUp7UbZTKVj8t4+fK0vP9pJAO0qVPVUWxl+fuYCXPZGHjJmXI7bbxyN/lmd0C4tH29fej5ery6CrrjsaZg14HU8s3w1ci7LQsc/Psey7WkYc8sotKl6bnDr8FmI260S3mo2D3XOa4uxIXfFYvxUdBLOemUtNv72GzZu3Fg1/fb7Biy+bSDicldi0U/HtOf4ogn63/ACnjizDXLfvQ03zP/d56FQLSnt0KG5ESX79+CIzjt+UXIQ+5Wxa/NO7dHM9cWxlaLgaKU2U81edAD7ipRhWudOUBbrgRFx8UrVVx7HsQq3SqwoQH5R7YNMhuROGP2XJ/G/Nd9g4e2DYf1hPh5dsA2WpNZom2rE8eIUDJ11Fs46q/Z05oTuaJrYHM2TlTeEeQegFM9NOfJyDqH21vgh0Hr0xtft07JHXFDlq4d2oC3HZymt0U5Zrnxdj4ZiROxvOwmwXYWlno5/j/cW/4HUGY/j7edvxjljByCrfUukoARHiny4hENMZ0w8fQBiNy/Dip3HsHnZV9jXaQbOGerykW9Q6/CjPYWivSgLcy4vsI+YzDuwfMnvqOg4HrNGnIQmKSlo0qRJ1ZSSnIY+p56B/k3ysW7RtzjkvjfUJeYkzHj4BfzfEGDDP27A3MV7/bp0R5Xknpg4qhNMP7+DN9YeddshK7HlgwX4vqQDRk7u61ZZBY6Pzmq8ranApv++g++K2uKUSf3QTEutLQHp7dORULYdP252PR9NIP/bpfhJJjkLYrfC6rqOmOYYdM55GJxWicO5eShv0h2jBrRCxcb/YeEvtQ/KiIpilMjxbLNeGNm3OUp+XogPf6/5gZ49bwUWrDjgtu0eGGKREBcDW2U5TK5PCLgevfB1+yRPZfPE3/x6/ClfLfXQDvzVpBcmnHISKjb8G6+vcX9dA+BvO/E3fxjrSZQcwuEyA5JapMH10GPRr8uw9oDS+QpvtWNE+3GzMCxlO776fCk+X3UQWUr/5/oF3+DW4Ud7CnF7CShAVGz9DJ9uNqHT+Bno76FXMHaaiDOHpKHw+4/w9QHdQaRnKX1x9fNP4JwOhfj8/usx79tjATTgphg253acdtJBfHDTBfi/f63GJqUh7d+xAZ8+/Rdc+eJWtDrjLtw4wq27N6Yjde/LuGHuAny3Yy/27/oZS5T8V83/A03GXo85o5trGfUY0WH0NPRrchhfPDIXr63dgf15u/HzRw/h1reL0bVDfPWIuXg1Hpl9K175fD3+3JuPQ/u3YNmb/8GPRenoP6qXEoRaYMy1V2FY4ja8ed3lePjDn7B93yEl35/4duFjmD37Gfwih1eGNph09QXobdiMV6+7Fs9/uQl7Du7DH2v/hduv/SfEoP5QBhjexaWjS4cmKN/yKRau+hO7t6zFt9tlwAmwHr3ycfskj2XzwN/8uvwoXy310A78loZRN96GGW3y8MHN5+PWf67C77vzkLf7Nyx/9Tbc9W5u3add1uJvO/EzfxjrydCyG3q1i8WeT5/Hq8v/RF7+Hvy+5Cnc+PQfSO+UrLxWPgyNW4/GuRPSsf+H5cp6+tY4OC0Ftw4/2lOo20t2t241TnPNkKe5ZtR1mmux+P7RaaJ3z2ni8fVlWpq+w0tvEqdk9RcXvbVDeDrJ0vzHy2JWn37ivNe318pTtvl1ccmQHqLH0EvE65sd68pffK0Y0muqeGK9+/lihWLZ/40WfSf/TXxXqiUpzPtXiqcvHyv6dcsSmerpW9mix8njxRXPfS0Ouq0wf/HVYmCPaeKhjz8VT50/VHSX+TMyRGa3AWLGbQvE5ppnjXlgErmf3C2m95P1qDxXqc9eo64U87/+Ujw6vZ8YcaN2OtvR1eLh0waLntmOcmVl9xB9h58hbl+wWVQX3y6O//qmuHHqANE9K1N9XTKzuoveAyeIy55cLvZWnQ9sEQdWPCbOG9bDUV5ledl9J4ob3vpF/Pr2JWJAn7PEfG+nuSrKNr4uZo90LCMje5x44NvqkvhTj3qcdftU1al7kq/bV3fZ9HjK7yzHkzXKIRWIpTcPF32mPCK+r1q07+WrLfLtIH/xdWKo7r7hmWnvF+Lxi0aJPtnyNZXr7y76DDtD3L1kr5BnrvtXX/63E5/zh3R/qa3o5/niL2N7iyxZBuU5fUZeJJ5ZtkI8d8EQMfiSt8Vu52n8dSj+5iExqWd3MeKGT0S+XUt04es69PcVH9uTKvB6UE9zVfLLOCDjgUEGCHV0o/xx3Ch/lalr165YuXKFGkTcCWW4Z7MbERNrlMeSPJNfNZdHoowxiFGPOOmoyhOr5NHSXAi7POgiYHAuQ8lvtQllkTGOg1guZF67MCiPuZdLwFpaiPyCYljj09CqTUuk6B2lEfLr7HLZscqybSgrzMPhEgOatG6LVrpP8ExYSnD4wGGUxTVHu7YtkBQjL0pogzC41oUdlUWFKDxargwNWyC9RTMk6h5flGU5iMNFJhhTWqJNK2WYqpfPXoGjB/Nx3JaCVm1boWm8rC9lm2T1KvXn6SVwJazlOHq4EJUJ6WjbMtnt9Ecf61FPjbrV0qr4tn11l6023fx1lMNz+/Gx/nVEtB2o2yZ3N99e62oC5uLDyD9SDmOTlmilrD/BudyA6svfduJr/hDvL+7sJhQV5OOYRe4/6WoZ1G1U3sF77L9q0Htt3fiyjrrq3Kf25OR/PUyaNBm7d+9WhjzyxARlCiRAEBFR4+MeIAI7SE1ERI2eUR09KGMH9cYxhlDvERHRiacqFijBgSMIIiLSxQBBRES6GCCIiEgXAwQREeligCAiIl0MEEREpMsRILQzW9VTXuXZTdo/IiI6cWhfl3b+5wiCQkTYYed7CqJGhQGCgmI/+jP+edNMnNK/L/qNmINF+YwSRI0FAwQFzpqLhXfOwbwfkjH1tsfw8HXD0dLPK7sTUfRigKCA2fasxOIfK9H/uidw/+WzcPbll2HsSb5c9ZKIGgIGCApYeV4ODlYm46SOLX3+jVsiajgYICgAAna7FRaL4/Mku8UMs83xux2ScL1vKcPRI8dR4f67w8KKssL92L0rB/sKSmHxcOjCdVmwlqJgXy72FZajxuJsFTiWl4ucvQUo9evnN22oOJaH3Jxc5B0t81gGd963z/tya2yXWv7davnLdH6f2Un+FkDBvhzk7CtEuZrP8VsAVctxZy1H4f4c7NqTj6KAf3uVTmRqgFCbjuOyrtp99S6RvuMrMXfCAIy+/iMcFIX4/PbxGNC3PybOXYFjpo147qyhGHP9B/jt6ydw7sjBGHbKNMxd4fwt3Urs+vRvuHDMAAwcMRHTZ07HxBGDMGjcZXj6q7yavz/uXNac9/HjFw/j7NGjMH7yFIw/ZTDG/OUNbCqz49j6lzB7/AiMnjQNUycMx+BRF+Mf64u0BXhixt4vn8TsiYMxaLijDBOUMgyZdgve2VSi5fGgzu3zcbnqMoZg9JyF+O27F3D5hOryDxpxIZ77we0ndsUxbHjtWkwaNBgjJk7HjCljMGz0RXhmyYf469SBSr2vhOsvFStjO/z5v7tx+vDBGDVpBmZOGYuhQybg6td+xnHu2+SFDAXOZsIRBPnP0Bmnzn0KT9w+Be0M6Rh305N4+pmnMPf0TMQpD1tNZTCVbcD8eT8g46qn8OrLt2Nsc9nkTNjxznW44LYF2NXxEsx7dwm++noFFr8xFxMTfsXrN1yKB1cfqdE5ymVVHF2Jl96swHkvL8aXyz/C3y/NRtma5zD3kcdx952fovnVr+GTFcux+Pkr0Mv0I+bf9yJ+rP177S7KsfO7n2EaNAfPLVyGr9d+hU9euha9jy/DE3e8gB+9/Gav5+3zfblWUzlMx1dj3t9+Qt973sHnK5dj0bOXoYdpPV6d+zS+PqZllD/grwSHq55eA9Owm/HKB8vw1fLFePnKFlj53H/wa4mynBpDFDN2/ud6XPrXz1E5+m7869OV+OqLBXh4WgJ+mDcHd364t+boi6gu8veo5W+Pyt84lb9D2jUjU3TtmiEmTJwoiOpSvPYeMSpzmLj1y6NaiqLyV/HUVKVN9Zog5n5ZIFx/mtee95G4elCmGHzFArHLrCVq7Ic+EzcNzxK9z3hBbKrUEuWypnQTGX3OFi9vdSYqKn4Tz53eS2Rk9BazXvhdVGjJQpSLX56aLrp3ny6e+c0lfy0VoiC/SFi1OQez2Db/bNGr2zQxb2Mdz61j+3xernO7ekwVj/5Q7EhTVYrNL8wSvTJHiblritQU+8HF4prBGaL/Jf8Wu2r8prNF7H7vCjEoI0MMu+ULcURLtR/8WFw3JFsMv36x2O9akMotYv65/UTPU/8uNlZXGFENst/vovT/Mg7IeMARBIWBAbEdJuKsUek1fqu44Mcv8cvxtphw6anIkEMNF4bW43HpjC4w71yHH/ZXv8eVP3uYmD0BE7IStBRFYif0zU6FIbE7pk3viUQtGUhCx95d0dRShENHKrU0PYlIb9NM+01rAZupFEcO5OJITDMk28pwtNisPuKZ/vb5tVxluxKyZ2DWgKZagpSAzoP6IB2lyD9Upo6kCtcvxy/H2mDcZUqd1TgTIBZdJpyOQWmyBNWlOPzD51h/tB3Gnj0abY0Cyj7vmOI7YkC/trDt3Yitha4jDiLPGCAoLBJadUTr6p5bYcbh3AMoS2yPHl1cO0WnRLTt2hZJpgIcKDRpaY7PQhNbtEFqjYASjybNkmBMboOTUmueP5XQtBkSDTZYrHV/IcNy6Hu8ee/lOHX0UAwZegpGTzwNVzzzDeSn/9rhuDrV3j4Hf5ab1Lo9WsRrM5qEtHQ0i7XDapZH2y0oyNmH0rhWyOigU2fJLdEyRf52sDav1HHB7v0oFQfxya0TMWjAAAyomkbjmvdzYbWU4LjjCDeRVwwQFBaxicmIr9G6lHfUVpvSSSqdt02vB1Z6ObWjc+3wwsN+YDFumXU5nvvOgGFXPYL573+G1T9swOpnpyvv3n1Te/tCs9yabDBVmmGPTURKos6uKuxuQUepY1m3yX1xwdwH8cADD9SYHnzkCcx79HKcnMBvM5JvGCAoQuKR3rGNMkI4hJwDekeQK1GwtwCVySehaxudt+YhY8WuzxZgTXFvXPfKa7j/8mkY1qsL2qSlwFZ8TClFoMKx3DikpqcirvIw9h6qvQT7sT3YWySDhDNKxKFFu5ZIqFDqUX4EdtZZOtMsjOjsNmwh8oABgiLEgLanTEG/pnn48rVF2FHjfFblvW/B13hnyS6knDwNo9qHs1maUHjwKMxxqUhPdekorbuxetlmeDnJtQ7hWG4M2g0cjI4x+/DlgtU4VGO0UIZfF/4PG2uccWVE28EjkZ2Yh6/eW4kDtQYKNlRUeDu+QlRN2RMdra76r3Dcr9EYiYIX03kW7rh6EOw/PoFLLn8SH6/fgQMH92DL2rdxx6V3YWnZQFx151noGtavZSejU+8MNCv5Ef985r/4eV8+Dmz/Bm/dfTs+tXVFSy2X/8Kz3KR+F+OaCa1QuOwezL7nPXy/fT/ycn7Fp0/8BXd81wGDO8WoB/Kd4rqfhxtndUHRivtw8Q3z8dWmXOQX5GP3xi/w6h2zcedH+3iaK3lW1e8rd5SRKUcQFIQYxMbHIsbtmEFsQgoS3M5SckhG3zlvYsHDp6HNzndw14XTMXb0RMy65u/4PnkmHn3/TVzfN1nL6xAbn4wEvYARF4+kOMf5Qq6EIRZxifF1XPrDgPZnPoRHLuqGY58/gPPHj8L4WbfiQ8O5uPWsLohXCh7r5d2R/vb5t1xP2yVkncq8zj0zpj3OfPoN3D+zHfIWPYBLpo/D2BmX4+nf+2HuI7PQ1qrsxLGxLjtyC4x74C08f0VfmNc+h2vPnIhRw0dj6oV3452drTHs5FbaWVZE3hmysrPVjzAdn2Nqp8QpdzO6dsVXX6105CLSI+yw2uwwxigdlEuQkJeRsBuMiHFNdGc34fjhfBwpB1JatkXr1ATddyvCrixLeaTWspR0mzAo6zY6jm07KWWSl54wGGNqlKk2AWv5MRw6XIKYFu3Qplk8DEJetkLZKbw8t+7t8225HrdLLb+S2egeeAXMxYeQf8SEuLQ2aN08EcZDH+O6GXch5+z38em9g5Ck5XSym4pw+FAhSm0JSE1vg/SmcTXrisjNxImTkLN7t3qiiEH5xxEEBU7pJGPlu1e3XscQE1N3cJCMCUhr2xmZGZ3R1kNwkGSnqrssme4eHCTZcSvr97Z62fxjk1ugfRdl/bITV5PkMr0/t+7t8225HrdLLX/tUZlcbnyztujUtTPaKcFBjgIKf1mF34vS0L1/51rBQTImpKJtp0xkde2AVgwOFAAGCKJoZsrB6iXfYW+Z6xFnO8q2/Rd/e2oFjnedgfNHBXYSLZE3DBBE0cxQht/fuAaThg3F2Onn4NIrLsO500bilNPuw0rrCNzx7B0Y3UzLSxRiDBBE0Sy+D6795/t44f/Ow+herZGAeLTuOxM3zPsvVq38J/7St4mWkSj0DFlZ2fKwtHpgWv5x3udBaiKiEwsPUhMRkU8YIIiISBcDBBER6WKAICIiXQwQRESkiwGCiIh0GeXZrdD+VN13nPMq54iI6ISh9Puy/3f85wiCiIj0MUAQEZEuBggiItLFAEFERLoYIIiISBcDBBER6VIDhHpCq/ZHvSEiohOWMw5wBEFERLoYIIiISBcDBBER6WKAICIiXQwQRESkiwGCiIh0KQHCcUJTzVNdeborEdGJRvb71RFBcARBRET6GCCIiEgXAwQREeligCAiIl0MEEREpIsBgoiIdBkdZzNVn9ikneNUfUtERCcGZxCQ/5WJIwgiItLFAEFERLoYIIiISBcDBBER6WKAICIiXQwQRESky1h9Nqvjnvq3OpGIiE4wzhDAEQQREeligCAiIl0MEEREpIsBgoiIdBkyMrOEvOiG+k/I62+of5CRkYFVq77SshE1DracfFh3HIT9wBFY9xcqt0dh21cIUVYJUW5SJjNQYXJkTkqAITlemZTblETEdExHTPsWiOmQDmP7lojNboeYjLaOvESNwIQJE5GzO0e5Z4DBoEwMENSYmX/aAevGHFg27YF1Uy7sB48jtk8ntbOXnbza6csOv1UzJQgkwKgEAkOTRPW59tJKQAka8tZeUATb/iOwK5NNCSwyqFg370XMSc0R06cz4vp2Rmz/DMQPzVafS9QQeQ4QapBwBAg5ZWZ0VQLEKvVJRA2FsNpg+eYPmL/ZCvO6LbAfKkL8yJ5KJ95J7cTj+naBITVZyx0cUVSuBJ5cNfjYlGBh/vYPGNukIn50b2XqhThlvYbYGC03UfSTAWJXTo4jODBAUGNh3XkQpqUbUPnZegjlHX+C1knLyZCWouUKL3G8TAlKMjBthUkJTnIkknjqECTMHIzYrHZaLqLoxQBBjYpp1e8wLVmvBof44T3UzlhO8uOi+iTKTFUBy/LDNke5TlOCxYR+Wg6i6MMAQY2C/Din4v21MK/YiMTzR6vv1OOi9PN/y0871EBRuXAd4if3R9KFY9SPvYiijXuA4Gmu1KBYfs1ByR1v4fjFf4exaRKafzgXTf92UdQGB0mWTZZRltXYLFktu9wGuS1E0YwBghoEefC57OXPcXz2PyDswhEYnrgMsX07azminyxr08cvVcsut0Fui9wmuW1E0YgBgqKeec0WFF3+D5g++RFN7z8fzZ69EnGDs7RHGx5ZdrkNclvkNsltk9tIFG0YICiqqaOGK/+BmOx2SH37FiSeM0J7pOGT2yK3SW6b3Ea5rUTRxJCRmSmPScuj09qBankLHqSmemXLO4qyv38M8/fb0OSOWUg8a7j2SHiYVv4Gy4adMK/6XT1NVr7Ll1PSZeO1HOFVueh7lD7zMeKHd0fK7bMQc1IL7RGiyJkwYQJ25eyGwaB+VY4jCIo+lm//QPGcV9VvL6e+cl3Yg0PlkvUofXQhyucvg3XbAdgOHEHlJz+i9LEPUPbSUi1XeMltlNsqt7lI2Xb5RT+i+sYAQVHF9MUvKLrjLcT276p0mHMQp9yGk/nrTSh/8TPYdh/WUqqJSjPKnv0E5W8s11LCS26rc5uL73xbrQui+sQAQVGj8qPvUHzX20g6eziaPnxh1TWRwkl+rCRHDR7Z7LCs36nNhJ/cZrntsg5kXcg6IaovDBAUFSreWa12iClzpiPljjO11PCzbNil3fPMtOJX9QJ9kSTrQNaFrBNZN0T1gQGC6p18l1zy8Pto+uCFSFY6xUgSFqt2rw7xsUA9XHRP1oWsE1k3HElQfWCAoHolP2cvefi/aKK8Y47UGUOu4id6vzZS/JBsxLRtrs1FlqwTWTeyjnhMgiJNCxDy5FaNeqdqjihs5Jk6suNLVjrBSI8cnOIGK51/p1baXG2GuNh6v26SrBtZR7Ku5BleROHi6PmVv1oI4AiC6oX8nkPpvI+RMGVARI85uJM/8JNy+xmIzdS/HHfyzafWW/ByJetI1lXp04vVuiOKBAYIqhfyS3DG1CQ0ubP+goNT4qxTlA54FpIuGovYbiepvx+RdN4oNJt3BVJumqnlqn+yrgxKncm6I4oE7ZvUjm9Pu36bOlP9yVF+k5pCT15SouLdNeoXw8L9PYeAyJ1BfpU0Clk27kbR9a8i6eKxSLlhhpZKFBrjJ0xAjrzct/aToxxBUETJi9KVPfuxevmMqAwOUpQGB0nWmaw7WYe8wB+FGwMERYy8rHX5618i6dLxYb98RmMm607WoaxLXiqcwokBgiKm4rUv1WsNJV8zVUuhQMk6lHUp65QoXIzO05nkeU0ud6vvE4WA/PU0+Y5Xdmy8UmnwZB3KupR1yl+mo5DSOn95wxEERUTFgq8RP/HkRvV7DvVN1qWsU1m3ROHAAEFhZ/nuT/VSEUkXjdFSKFRkncq6NfMLdBQGDBAUduXvrVG/Y9CQfyY0Wqk/anThGFS8v1ZLIQodBggKK/PqTTCv2Kh2YhQeMvjKOpZ1TRRKDBAUVqYl65F4/mjE9u2spVCoybqVdSzrmiiUGCAobKw7D6LyMyVAnDpES6FwkXVcodS1rHOiUDGqZzTJPy6nNhGFgmnpBsQP74G4odlaCoWLrOMEpa5lnRMFyxEHBEcQFB7yG75qgJg5WEuhcJN1Leuc366mUGGAoLCQv1tgL6lA4qkMEJEi61rWueUbnvJKocEAQWFhXrcV8aN7w5CcoKVQuMm6jh/dS/0hJqJQYICgsDCv24IEpbOiyJJBWdY9USgwQFDImX/aAfuhIvXdLEWWDMqy7uVrQBQsBggKOevGHPV3nOUvs1FkyTqXdS9fA6JgqQGi+tRWx/muPNWVgmHZtAcxfTppcxRpsu7la0AUCNf+nyMICjnb5j2I4zen642se+umXG2OKHAMEBRStpx82PKOKZ1UFy2FIk3Wvf3gcfW1IAoGAwSFlHXHQcT26QRDarKWQpEm616+BvK1IAoGAwSFlP3AEcR0TNfmqL7I10C+FkTBYICgkLLtL0RMBwaI+mZs3xJW5bUgCgYDBIWU7cBRGDu01OaovjhGEEe1OaLAKAFC76RWJY3nulIAbPvkCIIBor7JUZx8LYj8Jzt/RwDgCIJCSpRVwtgqVZuj+mJs1Ux9LYiCwQBBISXKTTA2SdTmqL4YUhLU14IoGAwQFFKi3AzwCq71zpiS6HgtiILAAEGhVcERRDQwyNdAeS2IgsEAQUREuhggKLSSEiBKeXC0vtnla6C8FkTBqAoQ6klNPLWVgmRIjoedZ8/Uv3KT+loQ+cUZA7QzXTmCoJCSP3spyvjZd32TIwj+3CsFiwGCQsqQkgh7QbE2R/XFXlCkvhZEwWCAoJCSl3iQ12Oi+mXbz4smUvAYICikjO1b8BIPUcAuA4TyWhAFgwGCQiq2Ay8zHQ14VV0KBQYICil5mWmOIOqffA3ka0EUDKPrqa3qXe30JqJAxGa3g3XzXoiici2FIk3WvXwN5GtB5Det/5c3HEFQSMVktIWxXRos/NH8eiPrPuak5uprQRQMBggKudi+XZROao82R5Em6z6mT2dtjihwDBAUcnF9O8O2ea82R5Em616+BkTBYoCgkIvtnwHzt39AHC/TUihSZJ3LupevAVGwGCAo5OKHZsPYJhWmdVu1FIoUs1Lnsu7la0AULAYICov40b2VzmqLNkeRIgOErHuiUNACRPW5rTzDlUIhflQvtbPiz15GjrxIokkJyvGje2kpRIFxxgGOICgs4kb1VH/VrPKzDVoKhZtp6Qa1zuNG9tRSiILDAEFhYYiNQeKpQ2BWOi2KjMrP1qt1LuueKBQYIChsEmYOhvn7P2H5aYeWQuEi69jywza1zolChQGCwiY2q53aYcl3thReso5lXcs6JwoVBggKq4TThqBy4TpY+c3qsJF1K+tY1jVRKDFAUFglTOiH+Mn9UfHeGi2FQq3i/bVqHcu6JgolBggKu6QLx6idmGXDTi2FQkXWqQy+so6JQs2onu9a9eUHfguCQi9+ZE8knTNS6cjWaikUKrJOZd3KOiYKnmsMEBxBUGQkXjwWpq9+Q+WH32kpFCxZl7JOZd0ShQMDBEVE3IAMJF8zFeWvfwlb3lEtlQIl61DWpaxTWbdE4cAAQRGTfO1UGFulqh0bBUfWoaxLWadE4cIAQREjv+Er3/FW/Gc1Khd9r6WSv2TdyTqUdclvTVM4MUBQRMWP7Y2U22ah9JmPYdm4W0slX8k6k3Un61DWJVE4MUBQxKXcMAPxw7uj7NmPIUortVTyRtaVrDNZd7IOicKtjgDBU14pfFJunwVRVIHSeYu1FPJG1pVdqTNZd0Th5ej/OYKgehFzUgs0uetMmJb/irJnGCS8kXUk66rJnbPUuiOKBAYIqjfydwuaPngByt9ZjfL5y7RUcifrRtaRrCv5Q0xEkcIAQfUqYdpAteMrVd4hVyidINUk60TWjawjWVdEkcQAQfUu8ewRSgd4IUoefp8jCReyLmSdyLqRdUQUaQwQFBWSLhuPZk/PRpnSKfKYhOOYg6wLWSeybojqAwMERQ35Lll2iBUffY+SB98/IU+Bldsst13WgawLjhyoPqkBQj2hSf7R7lTdJYow+Tl7s3mz1S+EFV0//4T6Mp1zm63KbeozV/CYA0Wco++v7v05gqCoI8/USZ1/nXqtoaLrXz0hLssht1Fuq9zmZsq2yzO8iOobAwRFJXmuf7O/X4mki8ei+M63UPLQ+43yKrBym+S2yW2U2yq3md9zoGjBAEFRTV5SIu1ft8C24yCKZv+jUf2ehNwWuU1y2+Q28vIZFG0YICjqyYvSpf77FiSeMQyljyxE8W3/atA/XyrLLrdBbovcJrltvPAeRSMGCGoQ1EuFK++wU9++RZkBjp3zJEru/Q+sm/ZoOaKfLGvJPe+oZZfbILdFbhMv2U3RigGCGhT562nyc/rm790Be3G5I1A88B4sP+3QckQfWTZZRllWe0kF0t69Xd0G/hIcRTtDl64ZQgE5KX/UU5zk/czMTHy9mpc+oOhmXr0JpiXrUfnZesQP74H4mYOReOpgGJITtBz1Q5SblDJtgHnpBpi+/xNJpw5BwmlDED++r5aDKPqMGz8eu3btUga4yj+DMjFAUGNg3XkQJtkZK5N8lx4/ujcSRvdSbnvBkJai5QovcbwMpnVbYV63RZm2wtg0CQlKwJJTbFY7LRdR9GKAoEZNWG2wfPuH2kHLjtp+qAjxI3sipk8nxPXtrExdYEhN1nIHRxSVw7IpV5n2wLZ5L8zKeo1tUtXgJL/LETeqJ48vUIPCAEEnFPNPO2DdmKN14sqUdwyxSrCI6ZiOmA7pMHZoqdy2VL+gZmySCCQnOG4V8rIX9rJKiDIT7AXFsO0vhG1fIewHjqi3ViUoGNulIVYJOjL4xPbPQPzQbPW5RA0RAwSd0Gw5+bDuOOjo5GWHf+Co2tkLGQjKTcpkBipMjsxJCTAkx6vHMwwpiWpQMbZvgVgZWNq3RGx2O8RktHXkJWoEGCCIiEiXe4Dgaa5ERKSrKkAYtFtlAKGomiMiohONFgI4giAiIl0MEEREpIsBgoiIdDFAEBGRLgYIIiLSxQBBRES6lAChnteq/XWqOUdERCcejiCIiEgXAwQREeligCAiIl0MEEREpIsBgoiIdDFAEBGRLiPPaCUioioyJmhxgSMIIiLSxQBBRES6GCCIiEgXAwQREeligCAiIl0MEEREpEsLEI5zmqrOeOWpr0REJzQZBjiCICIiXQwQRESkiwGCiIh0MUAQEZEuBggiItLFAEFERLpcAgTPbSUiomocQRARkS4GCCIi0sUAQUREuhggiIhIFwMEERHpYoAgIiJdDBBERKSLAYKIiHQxQBARkS4GCCIi0sUAQUREuhggiIhIFwMEERHpYoAgIiJdDBBERFTNoN0qGCCIiEgXAwQREeligCAiIl0MEEREpIsBgoiIdDFAEBGRLrcAIbRbIiI6IbmEAY4giIhIFwMEERHpYoAgIiJdDBBERKSLAYKIiHQxQBARkS63AKFdxs/lan5ERHRi4giCiIh0MUAQEZEuBggiItLFAEFERLoYIIiISBcDBBER6WKAICKiai5fc2CAICIiXQwQRESkiwGCiIh0MUAQEZEuBggiItLFAEFERLoYIIiIqBZ5tisDBBER6WKAICIiXQwQRESkiwGCiIh0MUAQEZEuBggiItJldFy5z+XyfURERAqOIIiISBcDBBER6WKAICIiXQwQRESkiwGCiIh0MUAQEZEulwBh4BmvRERUhSMIIiLSxQBBRES6GCCIiEiXEiD0DjpoxyOIiOjEIwOAMikBQlTNMyoQEZ24HHGhOhDUHEE4YoWaYrXZUFBQ4EggIqJGTfb3VqtNm3OoPgbhCB3OPzBVmrB9xw71PhERNW6yv680VWpzjjigBgjHXQfnfZPZhB3bt2tzRETUmMn+3mwyq/cdccCgjSCqIoR2R7kpLSnFu+++h/379zvSiIioUZL9vOzvS0tLXeKBMoIwqDPyT3VwkCwWC/Lz8/HSyy87EoiIqFGS/bzs72W/r1LigAwFMc2bN3/IkaIkqMFBixAK+XnUkcIj2LVrF3r06IFmzZppjxARUUMnRw6PP/4EVq1ehSNHjqhpBhkIlEm96ZqRIYQ8e0n5o/5zv69ITW2Gtm3b4pKLL0Z2dja6deuGVq1aOR4kIqIGQ56ttH37duzYsQML3n1XHTkUFxU7HpRBQf0jA4Qydc3IVCOBMyBo0cIRHFzS4+Ji0bRJU8QnxCMxIRExMUblETWrm1oJtXjN4X0RPgh+IZEpRkjWErQoqXJFdNRH8KpH4vUqBMWIki1ReClJ1Gxr8EuR796D57YQZVamyFNZTaZKmMxm9ZiDxWJ1jBbUDNrIwXlfDRDKTlkzIKhJ6q385/jvku74U3XrSk3zxkuWUCzDm9Csw/sygiymQwgW4tP2hlsUFKFBkXtzA6B2JsHyYRHes0SqHMGtR/0IJ1iBlFOZrer4q+47bh0fKznTqh83ZCgBQnYesu+vDhByafJWuaP+r3m/1q0LNV+wfFiE+3prCUkxomAdvgjBIrwJSTkp4tQdPhp4KYZvpQzJQuoUkvryWkwf1hGGZajPUf+73ip/XdPkvDNdPicjUwkQct9X/qidgPxf677b4/KfI1H970rLXTcvWSKyDB9W4Y1P5fQmBIvwZSFBryYk5WwYQvG6OnavBiLIovr2dC+5IlRdIXldvG5K8NsalmWos0qqcqs+VnXrmua4r87J+xmZWcr+IHcJ9UbZO2rfd/yvvnUfTbhS04LlwyK8rickxYiCdfgiBIvwtpCQrCJaRGJj1J2s/oWmGCFYSkgWEf5yRM06wlFO2eGrN8pf9b/8oy1Jm6/1WHWAUPYbR1RwBAf1Vrmj/tdutXyO/M7H3DieXCdtKcHxsgiv6whJEXxYSAjW401I6tObCKzCN1FTkBBQd836F4FiaN1QcEKyiPCXw+s6fChCKJbhnkmdU/6oy5adf9X9mmnqnLwP4P8BV0oazA3c/mQAAAAASUVORK5CYII=;" vertex="1" parent="1">
          <mxGeometry x="1427" y="230" width="392" height="338" as="geometry" />
        </mxCell>
      </root>
    </mxGraphModel>
  </diagram>
</mxfile>
